<svg xmlns="http://www.w3.org/2000/svg" xmlns:xlink="http://www.w3.org/1999/xlink" version="1.1" id="Sencha_Lockup_Script" class="Logo_Devs" x="0px" y="0px" width="220.655px" height="74px" viewBox="0 7 328 110" style="enable-background:new 0 7 328 110;" xml:space="preserve">
	<style>
		#Sencha_Market_Script, #Sencha_Devs_Script, #Sencha_Try_Script, #Sencha_ID_Script {
			fill: none;
		}
		.Logo_Market #Sencha_Market_Script,
		.Logo_Devs #Sencha_Devs_Script,
		.Logo_Try #Sencha_Try_Script,
		.Logo_ID #Sencha_ID_Script {
			fill:#000000;
		}
	</style>
<g id="Sencha_Logo_Text">
	<g>
		<g>
			<defs>
				<rect id="SVGID_1_" x="20.183" y="27.4" width="172.574" height="69.634"/>
			</defs>
			<clipPath id="SVGID_2_">
				<use xlink:href="#SVGID_1_" style="overflow:visible;"/>
			</clipPath>
			<path style="clip-path:url(#SVGID_2_);" d="M89.375,55.741c-0.264-0.485-0.62-0.913-1.063-1.191     c-0.442-0.278-0.941-0.499-1.512-0.613c-0.571-0.114-1.191-0.185-1.861-0.185c-0.442,0-0.884,0.043-1.319,0.136     c-0.442,0.093-0.842,0.25-1.198,0.485c-0.364,0.235-0.656,0.521-0.884,0.87c-0.228,0.349-0.349,0.792-0.349,1.319     c0,0.485,0.093,0.884,0.278,1.184c0.185,0.3,0.549,0.578,1.098,0.834c0.542,0.257,1.298,0.506,2.261,0.763     c0.963,0.257,2.218,0.578,3.773,0.97c0.464,0.093,1.105,0.264,1.933,0.506c0.82,0.242,1.64,0.635,2.453,1.162     c0.813,0.535,1.512,1.248,2.104,2.14c0.592,0.891,0.884,2.033,0.884,3.423c0,1.134-0.221,2.189-0.663,3.166     c-0.442,0.97-1.098,1.811-1.968,2.518c-0.87,0.706-1.947,1.255-3.231,1.655c-1.284,0.392-2.774,0.592-4.472,0.592     c-1.369,0-2.696-0.171-3.98-0.506c-1.284-0.335-2.425-0.863-3.409-1.583c-0.984-0.72-1.769-1.59-2.346-2.703     c-0.585-1.113-0.863-2.91-0.834-3.915h5.285c0,1.013,0.15,1.498,0.449,2.075c0.3,0.578,0.699,1.027,1.198,1.384     c0.499,0.357,1.084,0.613,1.754,0.792c0.67,0.171,1.369,0.257,2.09,0.257c0.485,0,1.013-0.043,1.562-0.121     c0.556-0.078,1.077-0.235,1.562-0.471c0.485-0.235,0.891-0.549,1.22-0.956c0.321-0.407,0.485-0.92,0.485-1.548     c0-0.67-0.214-1.22-0.642-1.633c-0.428-0.421-0.991-0.763-1.69-1.041c-0.692-0.278-1.483-0.521-2.368-0.727     c-0.884-0.207-1.776-0.442-2.674-0.692c-0.927-0.235-1.833-0.513-2.71-0.856c-0.884-0.335-1.669-0.77-2.368-1.305     c-0.692-0.535-1.255-1.198-1.683-1.997c-0.428-0.799-0.642-1.769-0.642-2.903c0-1.277,0.271-2.382,0.82-3.323     c0.542-0.941,1.255-1.719,2.14-2.346c0.884-0.628,1.876-1.091,2.988-1.391c1.113-0.3,2.225-0.449,3.338-0.449     c1.298,0,2.546,0.143,3.737,0.435c1.198,0.292,2.254,0.763,3.181,1.412c0.927,0.649,1.662,1.569,2.211,2.582     c0.542,1.006,0.813,1.74,0.813,3.758h-5.285C89.796,56.669,89.639,56.226,89.375,55.741 M115.049,66.76h-12.766     c0.071,2.018,0.478,2.938,1.22,3.659c0.742,0.72,1.811,1.17,3.202,1.17c0.998,0,1.854,0.014,2.575-0.485     c0.72-0.499,1.155-1.319,1.319-1.319h4.343c-0.699,2.018-1.762,3.48-3.195,4.407c-1.441,0.927-3.174,1.284-5.213,1.284     c-1.412,0-2.689-0.278-3.823-0.735c-1.134-0.449-2.097-1.12-2.888-1.954c-0.792-0.834-1.398-1.847-1.826-3.002     c-0.428-1.155-0.642-2.439-0.642-3.83c0-1.341,0.221-2.596,0.663-3.758c0.442-1.155,1.07-2.161,1.876-3.01     c0.813-0.849,1.776-1.512,2.903-2.004c1.127-0.485,2.368-0.727,3.737-0.727c1.533,0,2.86,0.292,4.001,0.884     c1.134,0.592,2.068,1.384,2.803,2.382c0.727,0.998,1.255,1.954,1.583,3.224c0.321,1.277,0.442,2.81,0.349,3.815 M109.08,61.012     c-0.592-0.649-1.491-0.906-2.696-0.906c-0.784,0-1.441,0.164-1.961,0.435c-0.521,0.264-0.941,0.613-1.255,1.006     c-0.314,0.392-0.535,0.692-0.663,1.127c-0.128,0.442-0.207,1.063-0.228,1.063h8.03C110.086,62.723,109.679,61.661,109.08,61.012      M129.177,74.833V64.756c0-1.483-0.078-2.589-0.542-3.323c-0.464-0.727-1.212-1.098-2.389-1.098     c-1.341,0-2.475,0.399-3.074,1.198c-0.606,0.799-1.055,2.111-1.055,3.944v9.343h-5.049V56.654h5.049v3.031h0.242     c0.628-1.013,1.433-1.933,2.432-2.403c0.998-0.478,2.018-0.777,3.06-0.777c1.319,0,2.403,0.15,3.252,0.506     c0.849,0.357,1.512,0.842,1.997,1.476c0.485,0.642,0.727,1.405,0.927,2.325c0.2,0.913,0.193,1.926,0.193,3.038v10.976h-5.042     V74.833z M145.274,60.406c-0.792,0-1.448,0.064-1.983,0.421c-0.535,0.357-0.97,0.763-1.305,1.334     c-0.335,0.571-0.578,1.162-0.713,1.847c-0.143,0.685-0.207,1.348-0.207,2.018c0,0.649,0.071,1.305,0.207,1.975     c0.143,0.67,0.364,1.277,0.678,1.826c0.314,0.542,0.735,0.991,1.269,1.334c0.535,0.349,1.184,0.521,1.947,0.521     c1.184,0,2.09-0.464,2.731-1.12c0.635-0.663,1.034-1.783,1.198-2.789h4.764c-0.328,3.031-1.248,4.336-2.781,5.591     c-1.533,1.255-3.487,1.94-5.877,1.94c-1.341,0-2.582-0.193-3.701-0.649c-1.127-0.449-2.082-1.07-2.867-1.876     c-0.792-0.813-1.405-1.769-1.847-2.895s-0.663-2.353-0.663-3.701c0-1.391,0.2-2.682,0.606-3.873     c0.406-1.191,1.006-2.225,1.79-3.095c0.785-0.87,1.747-1.548,2.888-2.033c1.134-0.485,2.432-0.727,3.894-0.727     c1.063,0,2.09,0.143,3.074,0.421c0.984,0.278,1.869,0.699,2.646,1.269c0.777,0.571,1.412,1.512,1.897,2.353     c0.485,0.849,0.763,1.227,0.834,3.245h-4.835C148.604,60.705,147.385,60.406,145.274,60.406 M167.532,74.833V64.756     c0-1.483,0-2.589-0.464-3.323c-0.464-0.727-1.17-1.098-2.353-1.098c-1.341,0-2.025,0.399-2.624,1.198     c-0.606,0.799-0.606,2.118-0.606,3.944v9.343h-5.049V49.601h5.049v10.091h-0.378c0.628-1.013,1.426-1.933,2.403-2.403     c0.977-0.478,1.926-0.777,2.853-0.777c1.319,0,2.403,0.15,3.252,0.506c0.849,0.357,1.512,0.842,1.997,1.476     c0.485,0.642,0.649,1.405,0.849,2.325c0.193,0.913,0.121,1.926,0.121,3.038v10.976H167.532z M187.814,74.833     c-0.093,0-0.171-0.521-0.228-0.813s-0.1-0.563-0.121-0.87c-0.792,0.813-1.719,1.391-2.781,1.712     c-1.07,0.321-2.154,0.492-3.266,0.492c-0.856,0-1.662-0.1-2.403-0.307c-0.742-0.207-1.391-0.535-1.947-0.97     c-0.556-0.442-0.991-0.998-1.305-1.669c-0.314-0.67-0.471-1.469-0.471-2.403c0-1.02,0.178-1.861,0.535-2.518     c0.357-0.663,0.82-1.191,1.391-1.583s1.22-0.692,1.947-0.884c0.735-0.2,1.469-0.357,2.211-0.471s1.469-0.207,2.189-0.278     c0.72-0.071,1.355-0.171,1.911-0.314c0.556-0.143,0.998-0.342,1.319-0.606c0.321-0.264,0.478-0.656,0.449-1.162     c0-0.535-0.086-0.956-0.264-1.269c-0.171-0.314-0.406-0.556-0.692-0.727c-0.292-0.171-0.628-0.292-1.006-0.349     c-0.385-0.057-0.792-0.086-1.234-0.086c-0.977,0-1.74,0.335-2.296,0.756c-0.556,0.421-0.877,1.205-0.97,2.218h-4.935     c0.071-1.013,0.357-2.254,0.87-3.017c0.513-0.763,1.162-1.448,1.947-1.904c0.785-0.464,1.676-0.827,2.66-1.02     c0.984-0.2,1.975-0.314,2.974-0.314c0.906,0,1.819,0.057,2.746,0.185c0.927,0.128,1.769,0.371,2.539,0.742     c0.763,0.371,1.17,0.884,1.655,1.548c0.485,0.663,0.506,1.533,0.506,2.624v9.357c0,0.813,0.271,1.548,0.364,2.289     c0.093,0.742,0.478,1.633,0.706,1.633h-4.999V74.833z M187.715,66.118c-1.013,0.185-0.699,0.328-1.013,0.435     s-0.763,0.193-1.127,0.264c-0.357,0.071-0.792,0.128-1.184,0.171c-0.392,0.043-0.82,0.107-1.212,0.171     c-0.371,0.071-0.749,0.164-1.113,0.278c-0.357,0.114-0.678,0.271-0.941,0.471c-0.264,0.2-0.485,0.449-0.649,0.749     c-0.164,0.3-0.242,0.685-0.242,1.148c0,0.442,0.078,0.813,0.242,1.113s0.385,0.542,0.663,0.713     c0.278,0.171,0.599,0.292,0.977,0.364c0.371,0.071,0.756,0.107,1.148,0.107c0.977,0,1.726-0.164,2.261-0.485     c0.535-0.328,0.927-0.713,1.184-1.162c0.257-0.449,0.642-0.913,0.699-1.376c0.057-0.464,0.314-0.834,0.314-1.113L187.715,66.118     L187.715,66.118z"/>
		</g>
	</g>
</g>
<g id="Sencha_Logo_Artwork">
	<g>
		<g>
	
	
		<linearGradient id="bottom_1_" gradientUnits="userSpaceOnUse" x1="10322.3848" y1="-4539.7368" x2="10278.2539" y2="-4583.8672" gradientTransform="matrix(0 -1 -1 0 -4518.8652 10363.0068)">
		<stop offset="0" style="stop-color:#C5D82D"/>
		<stop offset="0.1897" style="stop-color:#C2D62D"/>
		<stop offset="0.3354" style="stop-color:#B8CF2C"/>
		<stop offset="0.4665" style="stop-color:#A8C42B"/>
		<stop offset="0.5891" style="stop-color:#91B42A"/>
		<stop offset="0.7057" style="stop-color:#739F28"/>
		<stop offset="0.8177" style="stop-color:#4E8625"/>
		<stop offset="0.9242" style="stop-color:#236822"/>
		<stop offset="1" style="stop-color:#005020"/>
	</linearGradient>
	<path id="bottom" style="fill:url(#bottom_1_);" d="M48,79.8c3.3,1.6,5.6,5,5.6,8.9c0,3.8-2.1,7.1-5.3,8.47L53,95   c7.7-3.8,12.9-11.7,12.9-20.8c0-9-5.1-16.8-12.6-20.97l-15.2-7.6c-3.3-1.6-5.6-5-5.6-8.9c0-3.8,2-7.2,5.1-8.9L33,30.1   c-7.7,3.8-12.7,12.3-12.7,21.4c0,9,5.1,16.8,12.6,20.7L48,79.8z"/>


	
			<defs>
				<path id="SVGID_3_" d="M49.437,96.442c-0.342,0.242-0.699,0.464-1.077,0.663l2.988-1.526l-0.392-0.456      C50.493,95.608,49.986,96.05,49.437,96.442 M53.488,88.455L53.488,88.455L53.488,88.455z M53.488,88.44L53.488,88.44      L53.488,88.44z M53.488,88.426L53.488,88.426L53.488,88.426z M53.488,88.412L53.488,88.412L53.488,88.412z M53.488,88.398      L53.488,88.398L53.488,88.398z M53.488,88.376L53.488,88.376L53.488,88.376z M53.488,88.369L53.488,88.369L53.488,88.369z"/>
			</defs>
			<clipPath id="SVGID_4_">
				<use xlink:href="#SVGID_3_" style="overflow:visible;"/>
			</clipPath>
			
				<linearGradient id="SVGID_5_" gradientUnits="userSpaceOnUse" x1="-533.5778" y1="-643.0644" x2="-531.6921" y2="-643.0644" gradientTransform="matrix(23.259 23.259 -23.259 23.259 -2536.4351 27419.375)">
				<stop offset="0" style="stop-color:#C0D32E"/>
				<stop offset="0.2546" style="stop-color:#BDD12E"/>
				<stop offset="0.4064" style="stop-color:#B5CB2E"/>
				<stop offset="0.5312" style="stop-color:#A7C12D"/>
				<stop offset="0.6415" style="stop-color:#93B22D"/>
				<stop offset="0.742" style="stop-color:#78A02C"/>
				<stop offset="0.8356" style="stop-color:#58882B"/>
				<stop offset="0.922" style="stop-color:#336D29"/>
				<stop offset="1" style="stop-color:#0A5028"/>
			</linearGradient>
			<polygon style="clip-path:url(#SVGID_4_);fill:url(#SVGID_5_);" points="43.989,92.734 50.992,99.737 58.002,92.734      50.992,85.73    "/>
		</g>
	</g>
	<g>
		<g>
			<defs>
				<path id="SVGID_6_" d="M49.437,96.442c-0.342,0.242-0.699,0.464-1.077,0.663l2.988-1.526l-0.392-0.456      C50.493,95.608,49.986,96.05,49.437,96.442 M53.488,88.455L53.488,88.455L53.488,88.455z M53.488,88.44L53.488,88.44      L53.488,88.44z M53.488,88.426L53.488,88.426L53.488,88.426z M53.488,88.412L53.488,88.412L53.488,88.412z M53.488,88.398      L53.488,88.398L53.488,88.398z M53.488,88.376L53.488,88.376L53.488,88.376z M53.488,88.369L53.488,88.369L53.488,88.369z"/>
			</defs>
			<clipPath id="SVGID_7_">
				<use xlink:href="#SVGID_6_" style="overflow:visible;"/>
			</clipPath>
			
				<linearGradient id="SVGID_8_" gradientUnits="userSpaceOnUse" x1="58.2347" y1="237.0508" x2="657.2618" y2="226.1457" gradientTransform="matrix(0.1026 0.1023 -0.1034 0.1037 10.0132 4.9941)">
				<stop offset="0" style="stop-color:#C0D32E"/>
				<stop offset="0.3228" style="stop-color:#BED12E"/>
				<stop offset="0.4727" style="stop-color:#B6CC2E"/>
				<stop offset="0.5869" style="stop-color:#AAC32D"/>
				<stop offset="0.683" style="stop-color:#97B62D"/>
				<stop offset="0.7678" style="stop-color:#80A52C"/>
				<stop offset="0.8445" style="stop-color:#62902B"/>
				<stop offset="0.9152" style="stop-color:#3F772A"/>
				<stop offset="0.9794" style="stop-color:#185A28"/>
				<stop offset="1" style="stop-color:#0A5028"/>
			</linearGradient>
			<polygon style="clip-path:url(#SVGID_7_);fill:url(#SVGID_8_);" points="50.963,99.701 44.024,92.777 51.02,85.759 57.96,92.684         "/>
		</g>
	</g>
</g>
<g>
	<g>
		<g>
			<defs>
				<path id="SVGID_9_" d="M36.015,73.4L36.015,73.4L36.015,73.4 M32.785,71.781l-0.007-0.007      C32.777,71.781,32.785,71.781,32.785,71.781 M32.699,71.738c-0.007,0-0.007-0.007-0.014-0.007      C32.692,71.731,32.692,71.731,32.699,71.738 M32.649,71.709L32.649,71.709L32.649,71.709 M32.635,71.702      c0,0-0.007-0.007-0.014-0.007C32.628,71.702,32.635,71.702,32.635,71.702 M32.621,71.695c-0.007,0-0.007-0.007-0.014-0.007      C32.606,71.688,32.613,71.695,32.621,71.695 M32.606,71.688L32.606,71.688L32.606,71.688 M32.599,71.688L32.599,71.688      C32.606,71.688,32.606,71.688,32.599,71.688L32.599,71.688z M38.026,45.479c-0.007,0-0.007-0.007-0.014-0.007      C38.019,45.472,38.026,45.472,38.026,45.479 M38.019,45.472L38.019,45.472L38.019,45.472 M38.019,45.472L38.019,45.472      L38.019,45.472L38.019,45.472 M38.012,45.465L38.012,45.465L38.012,45.465 M38.012,45.465c-0.021-0.014-0.043-0.021-0.064-0.029      C37.969,45.443,37.991,45.457,38.012,45.465 M37.948,45.436c-0.057-0.029-0.114-0.057-0.171-0.093      C37.834,45.372,37.891,45.407,37.948,45.436 M37.777,45.343c-0.007,0-0.007-0.007-0.014-0.007      C37.77,45.343,37.77,45.343,37.777,45.343 M37.763,45.336c-0.007-0.007-0.021-0.007-0.029-0.014      C37.748,45.329,37.755,45.336,37.763,45.336 M37.734,45.322c-0.007,0-0.007-0.007-0.014-0.007      C37.727,45.322,37.734,45.322,37.734,45.322 M37.72,45.315c-0.007-0.007-0.014-0.007-0.021-0.014      C37.706,45.308,37.713,45.308,37.72,45.315 M37.698,45.301c-0.007,0-0.007-0.007-0.014-0.007      C37.691,45.293,37.691,45.301,37.698,45.301 M37.684,45.293c-0.007-0.007-0.021-0.007-0.029-0.014      C37.663,45.286,37.677,45.286,37.684,45.293 M37.656,45.279c0,0-0.007,0-0.007-0.007C37.648,45.279,37.656,45.279,37.656,45.279       M37.648,45.272c-0.093-0.05-0.178-0.1-0.264-0.157C37.47,45.172,37.556,45.229,37.648,45.272 M37.377,45.115      C37.377,45.115,37.37,45.115,37.377,45.115C37.37,45.115,37.377,45.115,37.377,45.115 M37.356,45.108L37.356,45.108      L37.356,45.108 M32.963,29.806c-7.659,3.823-12.78,12.164-12.78,21.307v0.071c0,1.341,0.164,2.66,0.385,3.944      c1.127,0.335,2.325,0.535,3.552,0.592c0.228,0.007,0.471,0.014,0.692,0.014c2.368,0,4.621-0.563,6.618-1.576      c0.307-4.029,1.098-8.08,2.674-12.024c-1.048-1.562-1.811-3.438-1.811-5.456l0,0v-0.007l0,0v-0.007v-0.007V36.65v-0.007v-0.007      v-0.007v-0.014c0-3.794,2.246-7.089,5.384-8.758L32.963,29.806z"/>
			</defs>
			<clipPath id="SVGID_10_">
				<use xlink:href="#SVGID_9_" style="overflow:visible;"/>
			</clipPath>
			
				<linearGradient id="SVGID_11_" gradientUnits="userSpaceOnUse" x1="-533.5915" y1="-643.2938" x2="-531.7059" y2="-643.2938" gradientTransform="matrix(23.259 23.259 -23.259 23.259 -2530.5378 27413.4785)">
				
				<stop offset="0.2546" style="stop-color: hsl(66, 66%, 50%);"/>
			</linearGradient>
			<polygon style="clip-path:url(#SVGID_10_);fill:url(#SVGID_11_);" points="-5.728,53.21 33.939,92.884 73.612,53.21      33.939,13.544    "/>
		</g>
	</g>
</g>
<g>
	<g>
		<g>
			<defs>
				<path id="SVGID_12_" d="M36.015,73.4L36.015,73.4l-1.619-0.806L36.015,73.4z M34.396,72.594l-0.107-0.057L34.396,72.594z       M24.826,55.727c-0.228,0-0.456-0.007-0.685-0.014c-1.227-0.057-2.446-0.257-3.573-0.585c0.078,0.435,0.134,0.764,0.233,1.192      l0.065,0.272c0.1,0.421,0.157,0.638,0.286,1.052l0.142,0.462c0.233,0.793,0.382,1.15,0.756,2.034l0.275,0.622      c0.063,0.139,0.174,0.376,0.305,0.635l0.321,0.621c0.378,0.756,0.618,1.092,1.075,1.791l0.064,0.1      c0.221,0.335,0.456,0.67,0.692,0.991l0.1,0.136c0.242,0.328,0.492,0.649,0.756,0.963l0.043,0.05      c0.257,0.307,0.528,0.613,0.799,0.906l0.071,0.078c0.271,0.292,0.556,0.571,0.842,0.849l0.143,0.135      c0.285,0.271,0.578,0.535,0.877,0.792l0.114,0.093c0.3,0.257,0.606,0.499,0.92,0.742l0.057,0.043      c0.314,0.242,0.642,0.471,0.97,0.699l0.171,0.114c0.321,0.214,0.649,0.421,0.984,0.628l1.741,0.948l1.026,0.521      c-2.325-5.755-3.452-12.103-2.967-18.436C29.418,55.135,27.193,55.727,24.826,55.727"/>
			</defs>
			<clipPath id="SVGID_13_">
				<use xlink:href="#SVGID_12_" style="overflow:visible;"/>
			</clipPath>
			
				<radialGradient id="SVGID_14_" cx="278.1379" cy="222.2859" r="1380.1733" gradientTransform="matrix(0.1415 0 0 0.1415 0 7.2173)" gradientUnits="userSpaceOnUse">
				
				
				<stop offset="0.0971" style="stop-color: hsl(76, 78%, 48%);"/>
				<stop offset="0.1104" style="stop-color: hsl(77, 87%, 45%);"/>
				<stop offset="0.1259" style="stop-color: hsl(82, 75%, 46%);"/>
				<stop offset="0.1423" style="stop-color: hsl(89, 62%, 47%);"/>
				<stop offset="0.154" style="stop-color: hsl(102, 48%, 50%);"/>
			</radialGradient>
			<rect x="20.161" y="53.538" style="clip-path:url(#SVGID_13_);fill:url(#SVGID_14_);" width="16.189" height="20.39"/>
		</g>
	</g>
</g>
<g>
	<g>
		<g>
			<defs>
				<path id="SVGID_15_" d="M46.421,74.99c-0.535,0-1.07-0.014-1.612-0.036c-3.06-0.143-6.138-0.755-8.927-1.625l12.086,6.104      c3.309,1.605,5.52,4.992,5.52,8.922v0.014v0.007v0.007l0,0c0,0.007,0,0.007,0,0.014l0,0v0.014l0,0v0.014l0,0v0.014l0,0v0.014      l0,0c0,0.007,0,0.021,0,0.029c0,2.567-0.906,4.899-2.532,6.64l0.392,0.456l0,0c10.735-5.079,14.02-12.876,14.249-21.723v-0.021      v-0.007v-0.014c0.134-1.383,0.027-3.046-0.292-4.55C59.821,72.886,53.424,74.99,46.421,74.99 M31.43,54.158      c2.667-1.348,4.892-3.495,6.326-6.133l1.177-2.097l-0.777-0.392c-0.043-0.021-0.086-0.043-0.121-0.064      c-0.221-0.114-0.435-0.228-0.649-0.357c0,0,0,0-0.007,0c0,0-0.007,0-0.007-0.007c-0.007,0-0.007-0.007-0.014-0.007      c0,0,0,0-0.007,0c-1.241-0.749-2.439-1.769-3.245-2.967C32.535,46.078,31.736,50.129,31.43,54.158"/>
			</defs>
			<clipPath id="SVGID_16_">
				<use xlink:href="#SVGID_15_" style="overflow:visible;"/>
			</clipPath>
			
				<linearGradient id="SVGID_17_" gradientUnits="userSpaceOnUse" x1="185.1481" y1="278.8918" x2="506.2025" y2="599.9462" gradientTransform="matrix(0.1415 0 0 0.1415 0 7.2173)">
				<stop offset="0.09" style="stop-color: hsl(78, 49%, 47%);"/>
				<stop offset="0.487" style="stop-color:#72A140"/>
				<stop offset="0.7629" style="stop-color:#236235"/>
				<stop offset="0.794" style="stop-color:#1C5730"/>
				<stop offset="0.8443" style="stop-color:#114829"/>
			</linearGradient>
			<rect x="31.144" y="41.735" style="clip-path:url(#SVGID_16_);fill:url(#SVGID_17_);" width="35.537" height="55.321"/>
		</g>
	</g>
</g>
<g>
	<g>
		<g>
			<defs>
				<path id="SVGID_18_" d="M37.755,48.025c-1.433,2.639-3.651,4.785-6.326,6.133c-0.485,6.34,0.542,12.623,2.867,18.378      l1.726,0.863c2.789,0.877,5.415,1.403,8.475,1.539c0.829,0.051,2.206,0.105,2.847,0.105c7.011,0,12.496-2.067,17.98-5.69      c-0.264-1.312-0.482-2.687-0.953-3.906l-0.014-0.014c-0.471-1.212-1.034-2.368-1.69-3.473l-0.043-0.071      c-0.428-0.72-0.899-1.412-1.405-2.082l-0.036-0.05c-0.242-0.321-0.492-0.628-0.756-0.934l-0.1-0.114      c-0.264-0.307-0.528-0.606-0.799-0.891l-0.021-0.021c-0.264-0.278-0.542-0.556-0.827-0.82l-0.114-0.107      c-0.278-0.264-0.563-0.513-0.856-0.763l-0.157-0.15c-0.3-0.25-0.599-0.492-0.913-0.727l-0.043-0.029      c-0.3-0.228-0.606-0.442-0.92-0.649l-0.171-0.121c-0.307-0.207-0.628-0.407-0.949-0.599c-0.064-0.036-0.128-0.078-0.193-0.114      c-0.328-0.193-0.663-0.378-1.006-0.556c-0.007,0-0.014-0.007-0.021-0.007l-14.406-7.224L37.755,48.025z"/>
			</defs>
			<clipPath id="SVGID_19_">
				<use xlink:href="#SVGID_18_" style="overflow:visible;"/>
			</clipPath>
			
				<radialGradient id="SVGID_20_" cx="-246.4093" cy="222.2934" r="126.2012" fx="-124.0636" fy="231.0925" gradientTransform="matrix(0.01 -0.1412 0.261 0.0185 -7.1476 20.3287)" gradientUnits="userSpaceOnUse">
				<stop offset="0" style="stop-color: hsl(83, 78%, 51%);"/>
				<stop offset="0.3658" style="stop-color: hsl(79, 83%, 44%);"/>
				<stop offset="0.5259" style="stop-color: hsl(81, 86%, 42%);"/>
				
				<stop offset="0.7452" style="stop-color: hsl(91, 82%, 40%);"/>
				<stop offset="0.83" style="stop-color: hsl(102, 60%, 43%);"/>
				<stop offset="1" style="stop-color:#3C9A44"/>
			</radialGradient>
			<rect x="30.403" y="45.243" style="clip-path:url(#SVGID_19_);fill:url(#SVGID_20_);" width="35.537" height="30.224"/>
		</g>
	</g>
</g>
<rect y="7.217" style="fill:none;" width="321.952" height="110"/>

<g id="Sencha_Market_Script" transform="translate(0,7.217)">
	<path d="M220.8395,49.3277c1.5664,0.0459,2.3955,2.4883,1.7969,4.5156c2.2119-2.1655,5.2998-4.3315,6.8203-4.2856
		c1.6582,0.0464,2.0273,2.7651,1.1055,5.0693c-0.8291,2.0737-3.0869,5.1147-4.2393,7.4189c-1.29,2.627-0.6455,4.7466,1.0137,4.7002
		c1.8896-0.0459,3.9629-3.0874,5.7607-6.313c0.2305-0.4146,0.5986-0.4146,0.8291-0.0923c0.2305,0.3228,0.0918,1.8433-0.415,2.9033
		c-1.29,2.6265-4.2393,4.9307-6.9121,4.9307c-4.0088,0-5.4834-3.1797-3.7783-6.9585c1.7051-3.8247,5.8057-8.9858,5.1152-9.2163
		c-0.3691-0.1382-1.9355,0.3687-4.9307,3.3643c-3.8252,3.8247-6.083,8.2485-8.0186,12.5801
		c-0.2764,0.5532-0.6455,0.6914-1.0596,0.2305c-0.7842-0.6914-1.4287-2.4883-0.0928-5.8062
		c1.5205-3.8247,6.498-10.1841,5.5762-10.5068c-0.5527-0.2305-2.8115,1.0142-5.7607,4.2397
		c-2.7188,2.9492-4.9307,7.2349-6.7734,11.5664c-0.1846,0.4146-0.4609,0.5991-0.876,0.2305
		c-1.0137-0.8755-1.2441-2.3965-0.4609-4.7466c0.9678-2.9028,4.332-9.4004,7.2354-13.7324c0.3223-0.5068,0.6914-0.4604,0.9678,0
		c0.7832,1.2905,0.6445,3.0874-0.0459,4.9312C215.7243,52.0001,219.1803,49.2813,220.8395,49.3277z"/>
	<path d="M236.276,67.9444c-4.2402,0-5.1611-5.8525-1.3369-11.3818c3.6865-5.2998,7.3271-7.4194,9.6777-7.4194
		c1.7969,0,2.7188,1.4287,2.7188,3.0415c0.6904-1.1523,1.29-2.0737,1.6123-2.5347c0.3691-0.5527,0.7373-0.6909,1.1064-0.2764
		c0.7373,0.8296,1.0596,2.7651,0.0459,5.0688c-0.9219,2.0737-3.3643,5.668-4.3779,8.0186
		c-1.1055,2.6265-0.9219,4.3315,0.5068,4.1934c2.9492-0.2769,7.0967-5.9448,9.2627-12.7188
		c-3.7324-1.3364,0.6445-7.6035,2.4883-7.7417c1.4287-0.0923,0.9678,2.6265,0,5.8062c1.6592-0.1841,3.3643-0.9678,5.1152-2.1655
		c0.6445-0.4609,0.9678-0.5532,1.3818-0.0923c0.876,0.9678,1.9814,3.0874,0.6455,4.6543c-2.166,2.4883-4.5156,5.7139-5.2529,8.0181
		c-0.7842,2.5347-0.2773,4.3315,1.1514,4.4238c1.9355,0.1382,4.2402-2.9028,5.7148-6.3594c0.1836-0.3687,0.5068-0.4604,0.6904,0
		c0.2305,0.5532,0.3691,1.7051-0.1836,2.9956c-1.1982,2.7647-3.917,4.7925-6.4521,4.7002c-3.502-0.1382-4.8848-3.3179-3.7783-7.0044
		c0.9219-3.0415,3.7324-6.4517,5.7139-8.6636c-2.0273,1.1982-4.0088,1.7051-5.4375,1.7051
		c-2.2578,6.4976-6.4053,13.4561-11.3359,13.8247c-2.5342,0.1841-3.917-1.4287-3.8711-3.7788
		C240.6071,66.1475,238.5338,67.9444,236.276,67.9444z M237.9801,58.4053c-2.4883,3.9634-2.9951,7.9722-1.1973,8.0186
		c1.8428,0.0459,4.2393-2.7651,6.5889-6.9121c2.8574-5.0229,3.2725-7.9263,1.9355-8.0186
		C243.8786,51.4014,240.5153,54.3507,237.9801,58.4053z"/>
	<path d="M278.6237,48.8204c1.751-0.5986,2.8564,0.0923,3.7783,2.0278c0.876,1.7974,0.7373,3.7324-0.9678,5.3916
		c-1.5664,1.5205-3.502,2.8569-6.4053,3.7324c0.1846,3.7788,1.4746,6.4053,3.2256,6.5898c1.8896,0.1841,4.4238-3.3638,5.8066-6.2212
		c0.2764-0.5527,0.6914-0.5991,0.9219-0.0459c0.2305,0.5527,0.1377,1.6587-0.5537,2.811c-1.1055,1.9351-3.2256,4.8843-6.8652,4.8384
		c-3.2266-0.0459-5.9453-2.6729-5.8525-8.8936c0-0.8296,0.0918-0.9678,0.9678-1.2441c5.7139-1.8896,8.7549-5.8984,8.0635-7.0967
		c-0.5068-0.8296-2.5342-0.3228-4.9766,1.5669c-3.4561,2.6265-5.5293,6.6816-9.0781,15.1606
		c-0.1377,0.3687-0.5068,0.4609-0.8291,0.0923c-0.6914-0.7837-0.9219-2.2583-0.0459-5.0689
		c1.29-4.1938,8.9395-19.3545,13.041-24.9302c0.4141-0.5532,0.875-0.5991,1.1514-0.0464c0.6914,1.3828,0.5996,3.2256-1.3359,6.5898
		c-1.1055,1.8892-2.9033,5.1152-4.1475,7.373C275.9967,50.0186,277.4254,49.2354,278.6237,48.8204z"/>
	<path d="M288.9459,66.8384c3.8242,0.1846,7.1885-3.502,9.1699-6.5435c0.2305-0.3687,0.5986-0.3687,0.7832,0.0459
		c0.1846,0.3687,0.0459,1.6592-0.7832,2.8574c-1.9355,2.8106-5.4834,4.9307-9.0322,4.9766
		c-5.8525,0.0923-7.8799-5.668-4.8848-11.6123c2.9961-5.9448,7.6963-8.3408,10-7.0049c1.1523,0.6914,1.9814,1.3828,2.7188,2.3965
		c0.8301,1.106,0.4609,3.917-1.4746,6.2671c-2.2578,2.7651-5.3457,3.9629-8.5713,1.3364
		C285.3971,63.7969,286.5035,66.7003,288.9459,66.8384z M292.7701,56.2398c1.4746-1.9355,2.4883-4.3315,1.8438-4.8384
		c-0.9678-0.7837-4.793,1.9814-6.959,6.3589c-0.1377,0.2769-0.2764,0.5532-0.3682,0.7837
		C289.5446,59.9722,291.4342,57.9908,292.7701,56.2398z"/>
	<path d="M300.0973,48.3135c-0.4609-0.645-0.1836-0.9678,0.5068-0.9214c1.291,0.0459,2.5811-0.0464,3.8252-0.1846
		c1.4287-2.5342,2.7188-4.7002,3.502-5.7139c0.415-0.5991,0.876-0.5532,1.1064,0c0.5068,1.29,0.5068,2.811-0.5996,5.207
		c1.7979-0.0459,2.4883,0.7837,2.8574,1.3823c0.3223,0.5532,0.1377,0.876-0.5527,0.876c-1.0146-0.1387-2.4424,0-3.5947,0.1841
		c-1.7969,3.0874-4.4238,7.5576-6.1748,11.4282c-1.5205,3.3643-1.0137,6.2212,0.9219,6.3135
		c2.0732,0.0918,4.7002-3.1797,6.4053-6.6357c0.2764-0.5532,0.7832-0.6455,0.9678,0c0.2295,0.7373,0,1.5664-0.4609,2.6265
		c-0.5996,1.3364-3.6406,5.3916-7.3271,5.2534c-3.041-0.0923-5.4834-3.5024-3.2715-8.8018
		c0.9668-2.3042,2.9023-6.1748,4.8838-9.8154C301.526,49.5118,300.4664,48.8204,300.0973,48.3135z"/>
</g>
<g id="Sencha_Devs_Script" transform="translate(0,7.217)">
	<path d="M219.4567,66.9312c1.8896-0.0918,4.3779-3.1797,5.9902-6.3594c0.2305-0.415,0.5527-0.415,0.7373-0.0459
		c0.1846,0.415,0.2305,1.6123-0.3682,2.8574c-1.2441,2.5342-4.1016,4.9766-6.6357,4.8379
		c-2.4883-0.1377-3.7324-1.5205-3.7324-3.6865c-1.4746,1.8438-3.5488,3.5488-5.7148,3.5488c-4.2852,0-5.1152-5.8525-1.3359-11.3828
		c3.6406-5.3447,7.3271-7.4189,9.6309-7.4189c1.8896,0,2.8105,1.4287,2.7646,3.1338c2.4883-4.7461,5.9912-11.0137,7.6494-13.3643
		c0.4609-0.6445,0.876-0.5986,1.1064,0c0.6455,1.5215,0.5068,3.5029-1.4287,6.959c-2.2119,3.9629-6.6357,11.5664-8.9395,16.4512
		C217.9362,65.1343,217.8893,67.023,219.4567,66.9312z M211.4381,58.5445c-2.4883,3.9629-2.9951,7.9717-1.1982,8.0176
		c1.8438,0.0469,4.332-2.6719,6.498-6.8662c2.6729-5.1143,3.3633-8.0176,2.0273-8.0635
		C217.3366,51.5865,213.9733,54.4888,211.4381,58.5445z"/>
	<path d="M230.7457,66.8394c3.8252,0.1836,7.1885-3.5029,9.1699-6.5439c0.2305-0.3691,0.5996-0.3691,0.7832,0.0459
		c0.1846,0.3691,0.0469,1.6592-0.7832,2.8574c-1.9355,2.8106-5.4834,4.9307-9.0312,4.9766
		c-5.8525,0.0918-7.8809-5.668-4.8848-11.6123c2.9951-5.9443,7.6953-8.3408,9.999-7.0049c1.1523,0.6914,1.9814,1.3828,2.7188,2.3965
		c0.8301,1.1064,0.4609,3.917-1.4746,6.2666c-2.2578,2.7656-5.3447,3.9639-8.5703,1.3369
		C227.1979,63.7974,228.3034,66.7008,230.7457,66.8394z M234.5709,56.2398c1.4746-1.9346,2.4883-4.3311,1.8428-4.8379
		c-0.9678-0.7832-4.792,1.9814-6.958,6.3594c-0.1387,0.2764-0.2764,0.5527-0.3691,0.7832
		C231.3444,59.9732,233.234,57.9918,234.5709,56.2398z"/>
	<path d="M254.6618,49.3736c0.5068-0.5068,0.7832-0.4141,0.876,0.1846c0.1377,0.9678-0.415,2.166-1.8896,4.0098
		c-2.3037,2.9023-6.4971,7.3262-10.9219,14.3311c-0.2295,0.3682-0.46,0.6914-0.9209,0.4609
		c-1.7979-0.876-2.4424-1.7979-2.3047-4.2402c0.1846-3.2256,1.4287-9.8145,2.9961-14.6074
		c0.1836-0.5068,0.5527-0.6914,0.9209-0.3682c1.5215,1.29,1.752,2.9951,1.1064,5.8057c-0.8291,3.5488-1.751,6.1289-2.3965,11.1523
		C245.4,60.7105,251.5289,52.6002,254.6618,49.3736z"/>
	<path d="M258.3483,51.9547c0.2305-1.7969,0.6914-2.6729,1.6592-3.5479c1.0137-0.9219,2.0732-1.1064,2.4883-0.6914
		c0.4609,0.4609,0.2305,0.9678-0.3691,2.0273c-0.1836,0.2764-0.3223,0.5527-0.5068,0.876c-0.3223,4.2393,0.5527,7.833,0.415,11.0127
		c-0.0918,1.7979-0.415,3.7334-2.0742,4.8389c3.0879-1.1523,5.0234-3.917,6.1758-6.4053c0.2305-0.5068,0.6904-0.3691,0.875,0
		c0.1846,0.415,0.1387,1.6133-0.6445,3.041c-1.752,3.1797-4.8848,4.9307-8.1572,5.0693c-2.6728,0.0918-5.2529-0.5986-6.8193-3.4561
		c-1.1064-2.0742-0.9678-5.1152,0.5986-6.4053c0.5527-0.4609,0.9219-0.2764,0.9678,0.4609
		c0.0459,0.3682,0.0459,0.7373,0.0918,1.1055C254.9381,57.3004,257.0114,54.3052,258.3483,51.9547z M253.4635,62.3687
		c0.6914,2.6729,2.0273,4.5625,3.5478,4.1016c2.1201-0.6455,1.4287-7.8799,1.2441-11.5664
		C256.9196,57.3463,255.2145,59.8804,253.4635,62.3687z"/>
</g>
<g id="Sencha_Try_Script" transform="translate(0,7.217)">
	<path d="M226.6452,68.2217c-3.502-0.1387-4.8838-3.3184-3.7324-7.0049c0.9678-3.0874,3.7783-6.5435,5.7607-8.7554
		c-2.0742,1.2905-4.1016,1.7515-5.6221,1.7515c-3.042,6.958-7.834,13.916-12.6729,13.916c-3.0879,0-5.5762-3.502-3.3633-8.8013
		c0.9209-2.2583,2.9023-6.1748,4.8838-9.7231c-1.5205-0.0459-2.5342-0.6914-2.9492-1.29c-0.4141-0.5996-0.1846-0.9678,0.5068-0.9219
		c1.4746,0.0918,2.6729-0.0459,3.7793-0.1382c1.4277-2.5347,2.6729-4.7007,3.502-5.7144c0.415-0.645,0.875-0.5986,1.1055,0
		c0.5078,1.2441,0.4609,2.8574-0.6445,5.2998c1.4746,0.0918,2.3496,0.875,2.7646,1.6123c0.2764,0.5068,0.0459,0.7373-0.6455,0.6914
		c-0.9209-0.0459-2.0732-0.0459-3.3174,0.0459c-1.7969,3.1338-4.4697,7.5576-6.2207,11.4287
		c-1.5674,3.4561-0.9219,6.2666,0.9678,6.2207c2.7646-0.0918,7.6035-5.7603,10.46-12.9028
		c-3.4561-1.3823,1.0596-7.6035,2.9492-7.6958c1.5205-0.0918,1.0596,2.7651-0.1846,5.7607
		c1.6133-0.1387,3.3184-0.9219,5.0234-2.1201c0.5986-0.4146,0.9219-0.5527,1.3359-0.0918c0.876,1.0137,2.0742,3.0869,0.6914,4.6538
		c-2.2119,2.4888-4.5156,5.5757-5.2988,8.0181c-0.8301,2.5347-0.2305,4.3779,1.1514,4.4238
		c1.8896,0.0923,4.2393-2.9028,5.7607-6.3589c0.1836-0.3687,0.5068-0.4609,0.6914,0c0.2305,0.5527,0.3223,1.7046-0.2305,2.9951
		C231.945,66.2862,229.1803,68.3135,226.6452,68.2217z"/>
	<path d="M241.2516,69.1431c-2.5801,6.1748-5.8525,13.5942-9.6768,15.0688c-0.876,0.3223-1.751,0.3223-2.627-0.9678
		c-0.9219-1.3828-1.8428-2.9956-0.9219-5.7144c1.3828-4.147,5.2998-6.9121,9.8613-8.7095c0.4609-1.0596,0.9219-2.2119,1.4287-3.3179
		c-1.4287,1.4746-3.1797,2.6729-5.0225,2.5347c-3.3184-0.2764-3.4102-3.6406-2.3506-6.6816
		c1.0137-2.9492,3.2715-7.5117,6.2676-11.6592c0.3682-0.5068,0.8291-0.4604,1.1514,0c1.1064,1.4746,0.8301,3.4102-0.875,6.1289
		c-1.6592,2.6729-2.6729,4.5625-3.5488,6.728c-0.9209,2.2583-0.8291,3.8711,0.2305,3.9634
		c1.7979,0.1377,4.1016-2.8115,6.4521-6.8203c1.9805-3.4102,3.9629-7.5576,5.5752-9.9072c0.415-0.5996,0.7373-0.6914,1.1523-0.3228
		c0.6455,0.8296,1.0137,2.811-0.1846,5.1611c-1.3828,2.6724-4.1934,8.2026-6.1289,12.6724c3.5947-1.9355,6.3135-4.562,8.1562-7.0967
		c0.2305-0.3223,0.6455-0.3687,0.7373,0.0923c0.0928,0.4146-0.0459,1.4746-0.8291,2.6724
		C248.3024,65.8253,245.0758,67.5762,241.2516,69.1431z M229.8698,81.6773c0.5986,0.8755,4.3779-4.1475,7.2344-10.9214
		C231.1139,74.212,229.0397,80.5255,229.8698,81.6773z"/>
</g>
<g id="Sencha_ID_Script" transform="translate(0,7.217)">
	<path d="M219.9176,39.0977c0.6445,1.3364,0.5986,3.5483-1.3828,7.0508c-2.8564,5.0225-7.9258,13.9165-11.29,21.4736
		c-0.1836,0.4609-0.3682,0.5068-0.7373,0.0923c-0.6445-0.6909-1.1973-2.3042-0.1836-5.1147
		c2.2578-6.2676,8.7549-18.1562,12.4883-23.5479C219.2262,38.4527,219.6413,38.545,219.9176,39.0977z"/>
	<path d="M221.484,42.4161c-0.1846-0.5073-0.1387-0.7837,0.4609-0.876c3.1797-0.4146,5.4834-2.2578,8.4785-2.7188
		c2.9492-0.4609,5.2539,1.0601,6.958,4.0552c4.2402,7.373-3.9629,20.8286-16.3125,24.9302
		c-1.3369,0.4609-2.166,0.3223-2.9492-0.3223c-0.5527-0.4609-1.29-1.0601-1.9355-1.9819c-0.876-1.1978-1.1055-1.8892-0.1377-4.8843
		c1.4277-4.332,5.2529-11.5205,8.4326-16.2671C222.6813,44.2589,221.7604,43.107,221.484,42.4161z M225.7233,48.7291
		c-2.3037,4.1011-6.0371,10.23-7.373,14.4692c-0.5986,1.9356-0.2764,2.5811,1.1064,2.0742
		c12.5801-4.793,18.3857-17.9722,15.667-22.3037c-1.6123-2.5806-4.9766-0.1382-8.2021,0.9219
		C227.152,45.0425,226.8756,46.7012,225.7233,48.7291z"/>
</g>
</svg>